<svg width="64" height="64" viewBox="0 0 64 64" fill="none" xmlns="http://www.w3.org/2000/svg">
<circle cx="32" cy="32" r="32" fill="#EBE8FD"/>
<path d="M18.6665 42.6667H45.3332V45.3334H18.6665V42.6667ZM21.3332 32.0001H23.9998V41.3334H21.3332V32.0001ZM27.9998 32.0001H30.6665V41.3334H27.9998V32.0001ZM33.3332 32.0001H35.9998V41.3334H33.3332V32.0001ZM39.9998 32.0001H42.6665V41.3334H39.9998V32.0001ZM18.6665 25.3334L31.9998 18.6667L45.3332 25.3334V30.6667H18.6665V25.3334ZM21.3332 26.9814V28.0001H42.6665V26.9814L31.9998 21.6481L21.3332 26.9814ZM31.9998 26.6667C31.6462 26.6667 31.3071 26.5263 31.057 26.2762C30.807 26.0262 30.6665 25.687 30.6665 25.3334C30.6665 24.9798 30.807 24.6407 31.057 24.3906C31.3071 24.1406 31.6462 24.0001 31.9998 24.0001C32.3535 24.0001 32.6926 24.1406 32.9426 24.3906C33.1927 24.6407 33.3332 24.9798 33.3332 25.3334C33.3332 25.687 33.1927 26.0262 32.9426 26.2762C32.6926 26.5263 32.3535 26.6667 31.9998 26.6667Z" fill="#745CF1"/>
</svg>
