<?xml version="1.0" encoding="UTF-8" standalone="no"?>
<svg
   width="40"
   height="40"
   viewBox="0 0 40 40"
   fill="none"
   version="1.1"
   id="svg84"
   sodipodi:docname="fixed_percentage.svg"
   xml:space="preserve"
   inkscape:version="1.2 (1:1.2.1+202207142221+cd75a1ee6d)"
   xmlns:inkscape="http://www.inkscape.org/namespaces/inkscape"
   xmlns:sodipodi="http://sodipodi.sourceforge.net/DTD/sodipodi-0.dtd"
   xmlns="http://www.w3.org/2000/svg"
   xmlns:svg="http://www.w3.org/2000/svg"><sodipodi:namedview
     id="namedview86"
     pagecolor="#ffffff"
     bordercolor="#000000"
     borderopacity="0.25"
     inkscape:showpageshadow="2"
     inkscape:pageopacity="0.0"
     inkscape:pagecheckerboard="0"
     inkscape:deskcolor="#d1d1d1"
     showgrid="false"
     inkscape:zoom="9.2874997"
     inkscape:cx="14.10498"
     inkscape:cy="29.071333"
     inkscape:window-width="1920"
     inkscape:window-height="973"
     inkscape:window-x="2560"
     inkscape:window-y="0"
     inkscape:window-maximized="1"
     inkscape:current-layer="layer1" /><defs
     id="defs82"><linearGradient
       id="paint0_linear_274_6437"
       x1="20"
       y1="0"
       x2="20"
       y2="40"
       gradientUnits="userSpaceOnUse"><stop
         stop-color="#ED8B00"
         id="stop74" /><stop
         offset="1"
         stop-color="#FFD191"
         id="stop76" /></linearGradient><clipPath
       id="clip0_274_6437"><rect
         width="24"
         height="24"
         fill="white"
         transform="translate(8 8)"
         id="rect79" /></clipPath></defs><rect
     width="40"
     height="40"
     rx="4"
     fill="url(#paint0_linear_274_6437)"
     id="rect70"
     x="0"
     y="0"
     style="display:inline"
     sodipodi:insensitive="true" /><g
     inkscape:groupmode="layer"
     id="layer1"
     inkscape:label="percent"
     transform="translate(-1.3913124,3.7629382)"><g
       id="g277"
       transform="matrix(0.94754122,0,0,0.94754122,6.2107256,1.1380815)"><path
         d="M 9,14 C 8.011,14 7.044,13.707 6.222,13.157 5.4,12.607 4.759,11.827 4.38,10.913 4.001,9.999 3.903,8.994 4.095,8.024 4.288,7.054 4.764,6.163 5.463,5.464 6.162,4.765 7.053,4.289 8.023,4.096 c 0.97,-0.193 1.975,-0.094 2.889,0.285 0.914,0.379 1.695,1.019 2.244,1.842 0.549,0.822 0.843,1.789 0.843,2.778 -0.001,1.326 -0.529,2.597 -1.466,3.534 -0.937,0.937 -2.208,1.465 -3.534,1.466 z"
         id="path263"
         style="fill:#ffffff" /><path
         d="M 26.585,4 3.999,26.586 5.413,28 27.999,5.414 Z"
         id="path265"
         style="fill:#ffffff" /><path
         d="m 23,28 c -0.989,0 -1.956,-0.293 -2.778,-0.843 -0.822,-0.55 -1.463,-1.33 -1.841,-2.244 -0.379,-0.914 -0.477,-1.919 -0.285,-2.889 0.192,-0.97 0.669,-1.861 1.368,-2.56 0.699,-0.699 1.59,-1.175 2.56,-1.368 0.97,-0.193 1.975,-0.094 2.889,0.285 0.914,0.378 1.695,1.019 2.244,1.841 C 27.706,21.044 28,22.011 28,23 27.999,24.326 27.471,25.597 26.534,26.534 25.597,27.471 24.326,27.999 23,28 Z"
         id="path267"
         style="fill:#ffffff" /></g></g></svg>
